<?xml version="1.0" encoding="UTF-8"?><svg id="Calque_1" xmlns="http://www.w3.org/2000/svg" width="1024" height="1024" viewBox="0 0 1024 1024"><path d="M925.62,746.97c-189.05-145.62-347.17-319.68-487.33-511.88-1.91,3.95-3.55,7.39-5.23,10.81-14.75,30.02-35.08,56.2-56.47,81.6-43.34,51.46-90.7,99.16-140.88,143.79-59.45,52.88-120.64,103.8-181.08,155.56-.58.5-1.28.86-2.78,1.85-2.27-10.87-4.79-21.15-6.54-31.56-18.26-109.07-3.84-213.55,48.6-311.11C163.85,155.95,271.14,71.7,416.16,41.97c157.5-32.28,297.63,8.07,416.5,116.48,78.97,72.02,127.19,162.27,145.86,267.44,19.79,111.47,2.66,217.57-50.72,317.63-.46.85-1.03,1.64-2.18,3.46Z"/><path d="M59.22,653.11c20.93-8.77,41.74-16.75,61.92-26.09,72.99-33.78,142.5-73.95,210.78-116.26,34.38-21.31,68.29-43.38,103.18-65.59,137.75,136.96,291.34,253.26,464.74,342.63-90.05,134.9-261.94,225.98-449.4,200.86-211.3-28.31-349.44-186.82-391.22-335.56Z"/></svg>